<?xml version="1.0" encoding="utf-8"?><!DOCTYPE svg PUBLIC "-//W3C//DTD SVG 1.1//EN" "http://www.w3.org/Graphics/SVG/1.1/DTD/svg11.dtd"><svg version="1.1" id="Layer_1" xmlns="http://www.w3.org/2000/svg" xmlns:xlink="http://www.w3.org/1999/xlink" x="0px" y="0px"
	 width="1024px" height="1024px" viewBox="0 0 1024 1024" enable-background="new 0 0 1024 1024" xml:space="preserve"><g><path d="M757.271,733.228c-20.033-14.308-97.302-90.861-153.817-100.875c-56.524-10.017-87.757,16.456-89.668,22.18
		c-1.909,5.721-11.21-9.305-41.974-17.889c-30.763-8.585-70.113-15.027-120.192,25.039c-50.079,40.065-87.998,82.28-133.785,76.553
		c-45.787-5.726-42.985,13.646-26.47,23.609c0,0,135.929,100.873,312.641-28.617c0,0,82.274,76.984,201.036,66.036
		c118.764-10.95,135.933-47.433,130.212-61.028C829.528,724.641,777.304,747.535,757.271,733.228z"/><ellipse cx="731.51" cy="545.785" rx="50.795" ry="71.542"/><ellipse cx="288.465" cy="545.785" rx="50.794" ry="71.542"/><path d="M911.085,295.384c-128.775-24.324-290.46-45.787-290.46-45.787s-42.93-38.63-100.163-37.201
		c0-17.843,0-33.429,0-45.928c20.908-6.154,36.185-25.46,36.185-48.363c0-27.855-22.577-50.438-50.436-50.438
		c-27.855,0-50.438,22.583-50.438,50.438c0,22.333,14.53,41.245,34.641,47.878v46.412c0,0-60.094-2.864-100.159,37.201
		c0,0-168.842,15.737-256.125,35.771C46.846,305.4-8.958,325.432,3.92,451.349c12.878,125.915,28.617,287.604,35.772,343.407
		c7.155,55.804,1.431,131.638,258.986,151.67c257.556,20.033,413.52,10.015,568.052-21.462
		c110.179-24.327,108.744-77.267,115.899-145.947c7.155-68.682,25.756-261.85,32.911-320.514
		C1022.693,399.837,1039.863,319.708,911.085,295.384z M946.859,469.951c-5.725,52.939-21.462,170.269-30.047,260.413
		c-8.584,90.145-22.896,111.606-108.749,124.489c-309.065,44.359-503.661,8.585-595.236,0
		c-91.576-8.584-110.176-64.388-115.9-120.19c-5.724-55.806-24.323-264.711-24.323-264.711
		c-6.303-70.317,20.031-100.162,70.11-113.04c50.08-12.877,227.508-40.065,356.285-40.065s289.036,25.756,367.732,40.065
		C945.426,371.221,952.583,417.008,946.859,469.951z"/></g></svg>
