<?xml version="1.0" encoding="utf-8"?>
<!-- Generator: Adobe Illustrator 16.0.0, SVG Export Plug-In . SVG Version: 6.00 Build 0)  -->



<!DOCTYPE svg PUBLIC "-//W3C//DTD SVG 1.1//EN" "http://www.w3.org/Graphics/SVG/1.1/DTD/svg11.dtd">

<svg version="1.1" style="fill:purple;" id="Layer_1" xmlns="http://www.w3.org/2000/svg" xmlns:xlink="http://www.w3.org/1999/xlink" x="0px" y="0px"
	 width="612px" height="105.479px" viewBox="0 0 612 105.479" enable-background="new 0 0 612 105.479" xml:space="preserve">
<g>
	<path d="M94.036,31.277c-7.485-1.934-27.585-4.205-27.585-4.205s-3.815-3.372-9.707-3.882v-4.305
		c1.879-0.648,3.238-2.413,3.238-4.513c0-2.648-2.147-4.794-4.794-4.794c-2.648,0-4.794,2.146-4.794,4.794
		c0,2.1,1.358,3.865,3.238,4.513v4.304c-6.488,0.507-9.806,3.883-9.806,3.883s-3.785,0.084-19.933,2.271
		C7.746,31.53,7.018,38.063,7.578,44.229c0.561,6.167,1.514,18.84,3.196,33.642c1.682,14.803,15.812,14.886,26.998,15.475
		c11.186,0.589,26.24,0.336,26.24,0.336c35.828,0.169,35.407-10.344,36.08-14.718c0.673-4.373,2.019-22.035,3.364-32.379
		C104.801,36.24,101.521,33.212,94.036,31.277z M96.139,52.135c-1.178,9.755-1.85,18.67-2.355,23.296
		c-0.505,4.625-1.093,8.242-13.625,9.42c-12.531,1.178-20.857,1.178-32.127,1.178c-11.27,0-30.489,0.774-31.708-13.037
		c-1.161-13.164-0.873-9.792-0.843-9.448c-0.027-0.313-1.011-11.72-1.343-15.951c-0.336-4.289-0.925-10.344,13.709-12.026
		c14.634-1.682,31.118-4.458,62.572,1.682C96.307,39.015,97.316,42.379,96.139,52.135z"/>
	<path d="M83.859,72.656c-5.719,0.673-6.56-1.346-13.541-6.98c-6.981-5.635-14.716-0.589-14.716-0.589s-3.114-2.607-7.487-2.607
		s-7.149,2.944-9.42,4.794c-2.271,1.851-7.233,6.813-11.942,5.552c-4.71-1.262-2.355,3.196,3.28,4.793
		c5.635,1.599,15.391,2.271,24.811-4.793c3.785,2.69,8.657,6.258,18.587,5.842C86.551,78.118,89.579,71.984,83.859,72.656z"/>
	<ellipse cx="34.533" cy="54.995" rx="4.668" ry="6.644"/>
	<ellipse cx="76.337" cy="54.995" rx="4.668" ry="6.644"/>
	<path d="M140.461,31.223c-20.073,0-22.764,19.289-22.091,26.577c0.673,7.288,6.055,21.417,23.661,21.417
		c13.12,0,18.839-6.615,18.839-6.615l-4.598-6.728c0,0-4.484,4.716-13.344,4.716c-8.859,0-14.017-6.825-14.466-12.163h35.21
		C163.673,58.427,166.028,31.223,140.461,31.223z M128.603,51.21c-0.084-3.953,4.037-11.858,12.402-11.858
		c12.234,0,13.333,11.858,13.333,11.858H128.603z"/>
	<path d="M357.547,31.223c-20.073,0-22.766,19.289-22.093,26.577c0.673,7.288,6.054,21.417,23.66,21.417
		c13.121,0,18.84-6.615,18.84-6.615l-4.597-6.728c0,0-4.486,4.716-13.346,4.716c-8.857,0-14.017-6.825-14.465-12.163h35.211
		C380.758,58.427,383.114,31.223,357.547,31.223z M345.688,51.21c-0.084-3.953,4.037-11.858,12.402-11.858
		c12.234,0,13.334,11.858,13.334,11.858H345.688z"/>
	<path d="M192.437,31.223c-12.615,0-19.512,7.372-19.512,7.372l4.374,6.686c0,0,5.719-5.34,13.625-5.34
		c7.905,0,10.513,5.046,10.513,8.663c0,3.616,0-0.757,0,5.803c-14.718-12.699-30.698-3.196-30.698,7.739
		c0,9.082,5.214,17.072,15.475,17.072c10.261,0,15.139-5.804,15.139-5.804v4.626h9.756c0,0,0-20.941,0-31.034
		C211.107,36.913,204.127,31.223,192.437,31.223z M201.268,67.273c0,0-3.869,4.794-10.85,4.794c-6.98,0-10.092-5.634-9.671-8.663
		c0.168-5.045,7.401-12.446,20.521-2.858V67.273z"/>
	<path d="M241.553,50.033c-7.064-1.346-11.69-2.691-10.345-6.98c1.346-4.289,13.289-6.308,21.446,1.682l4.374-7.065
		c0,0-5.803-6.447-17.494-6.447c-11.69,0-19.512,6.447-17.998,16.455c1.514,10.009,15.979,10.85,20.605,12.279
		c6.224,1.43,8.074,2.775,5.803,7.905c-2.439,4.878-16.428,4.234-23.269-3.224l-5.159,7.429c0,0,7.065,7.149,19.176,7.149
		s20.269-6,19.765-15.237C257.953,54.743,248.617,51.378,241.553,50.033z"/>
	<path d="M586.659,50.033c-7.065-1.346-11.69-2.691-10.345-6.98c1.345-4.289,13.287-6.308,21.446,1.682l4.373-7.065
		c0,0-5.803-6.447-17.493-6.447c-11.691,0-19.512,6.447-17.998,16.455c1.514,10.009,15.979,10.85,20.604,12.279
		c6.224,1.43,8.074,2.775,5.804,7.905c-2.439,4.878-16.429,4.234-23.269-3.224l-5.159,7.429c0,0,7.065,7.149,19.176,7.149
		c12.111,0,20.27-6,19.765-15.237C603.06,54.743,593.724,51.378,586.659,50.033z"/>
	<path d="M298.575,32.371l-13.205,33.221l-13.036-33.221h-11.018l18.755,45.836c0,0-0.421,1.598-2.943,6.224
		c-2.523,4.626-9.42,2.271-9.42,2.271s0,0-1.766,9.167c14.465,2.775,19.344-4.122,22.035-10.681
		c2.692-6.561,21.866-52.817,21.866-52.817H298.575z"/>
	<path d="M315.506,77.982c0,5.607-1.206,9.896-6.671,9.896c-5.466,0-6.476-2.606-6.476-2.606l-3.027,7.905
		c0,0,2.607,3.322,12.193,3.322c9.586,0,13.959-8.117,13.959-15.182s0-48.947,0-48.947h-9.979
		C315.506,32.371,315.506,72.375,315.506,77.982z"/>
	<path d="M416.736,31.194c-10.598,0-15.979,6.896-15.979,6.896v-5.803h-10.009v45.668h10.009V46.08c0,0,4.709-6.308,12.279-6.308
		c7.568,0,8.326,5.551,8.326,10.177c0,4.625,0,28.006,0,28.006h10.344c0,0,0-26.408,0-31.371S430.781,31.194,416.736,31.194z"/>
	<path d="M541.882,31.194c-10.598,0-15.979,6.896-15.979,6.896v-5.803h-10.009v45.668h10.009V46.08c0,0,4.71-6.308,12.278-6.308
		c7.569,0,8.327,5.551,8.327,10.177c0,4.625,0,28.006,0,28.006h10.344c0,0,0-26.408,0-31.371S555.928,31.194,541.882,31.194z"/>
	<polygon points="486.289,32.287 473.591,32.287 453.909,54.238 453.909,14.878 443.733,14.878 443.733,77.955 453.826,77.955 
		453.826,65.676 459.881,59.2 473.758,77.955 486.878,77.955 467.534,53.061 	"/>
	<rect x="493.354" y="32.371" width="10.094" height="45.584"/>
	<circle cx="498.4" cy="20.765" r="6.055"/>
	<circle cx="320.398" cy="20.765" r="6.055"/>
</g>
</svg>
